<svg height="574" width="720" xmlns="http://www.w3.org/2000/svg">
<rect height="574" fill="#555" width="720"></rect>
<text fill="#7f7" font-family="Courier New" font-size="12" xml:space="preserve">
<tspan x="10" y="26"></tspan>
<tspan x="10" y="42">[MODE_BUILD=buildApp] - 2018-01-28T02:51:54.538Z - npm-testing /home/travis/build/kaizhu256/node\</tspan>
<tspan x="10" y="58">-visualization</tspan>
<tspan x="10" y="74"></tspan>
<tspan x="10" y="90"></tspan>
<tspan x="10" y="106">buildApp - merged test-report from file /home/travis/build/kaizhu256/node-visualization/tmp/buil\</tspan>
<tspan x="10" y="122">d/test-report.json</tspan>
<tspan x="10" y="138">&gt; server listening on http-port 47330</tspan>
<tspan x="10" y="154">&gt; server listening on http-port 61075</tspan>
<tspan x="10" y="170">[node test-case 1 of 1 passed] - testCase_buildApp_default</tspan>
<tspan x="10" y="186"></tspan>
<tspan x="10" y="202">buildApp - merged test-report from file /home/travis/build/kaizhu256/node-visualization/tmp/buil\</tspan>
<tspan x="10" y="218">d/test-report.json</tspan>
<tspan x="10" y="234"></tspan>
<tspan x="10" y="250">-------------------------------------------------------</tspan>
<tspan x="10" y="266">| test-report - buildApidoc - node - linux v6.12.3 - 2018-01-28T02:51:00.217Z</tspan>
<tspan x="10" y="282">|   60516 ms            0 failed        1 passed      |</tspan>
<tspan x="10" y="298">-------------------------------------------------------</tspan>
<tspan x="10" y="314">| test-report - npmTest - browser - / - Mozilla/5.0 (X11; Linux x86_64) AppleWebKit/537.36 (KHTM\</tspan>
<tspan x="10" y="330">L, like Gecko) Chrome/56.0.2924.87 Electron/1.6.15 Safari/537.36 - 2018-01-28T02:50:42.655Z</tspan>
<tspan x="10" y="346">|      38 ms            0 failed        8 passed      |</tspan>
<tspan x="10" y="362">-------------------------------------------------------</tspan>
<tspan x="10" y="378">| test-report - npmTest - node - linux v6.12.3 - 2018-01-28T02:50:41.027Z</tspan>
<tspan x="10" y="394">|   16148 ms            0 failed        8 passed      |</tspan>
<tspan x="10" y="410">-------------------------------------------------------</tspan>
<tspan x="10" y="426"></tspan>
<tspan x="10" y="442">created test-report file /home/travis/build/kaizhu256/node-visualization/tmp/build/test-report.h\</tspan>
<tspan x="10" y="458">tml</tspan>
<tspan x="10" y="474"></tspan>
<tspan x="10" y="490"></tspan>
<tspan x="10" y="506">buildApp - 0 failed tests</tspan>
<tspan x="10" y="522"></tspan>
<tspan x="10" y="538"></tspan>
<tspan x="10" y="554">[MODE_BUILD=buildApp] - 2018-01-28T02:52:02.888Z - EXIT_CODE - 0</tspan>
</text>
</svg>
